<svg width="238" height="177" viewBox="0 0 238 177" fill="none" xmlns="http://www.w3.org/2000/svg">
  <path d="M168.677 171.791L35.0358 171.886L5.19038 86.0853C3.44592 81.2501 7.04861 76.1495 12.1872 76.1495L131.569 76.0547C134.698 76.0547 137.504 78.0267 138.566 80.9657L168.696 171.791H168.677Z" stroke="white" stroke-width="9.48076" stroke-miterlimit="10"/>
  <path d="M230.434 171.791H169.283L161.699 149.322H212.288C218.602 149.322 224.215 153.342 226.244 159.315L230.434 171.791Z" stroke="white" stroke-width="9.48076" stroke-miterlimit="10"/>
  <path d="M176.621 139.765C180.3 127.232 193.971 119.192 205.329 119.192C216.687 119.192 221.712 127.782 217.749 139.765" fill="white"/>
  <path d="M98.6136 139.936C89.0949 141.036 80.5243 134.02 79.7848 124.388C79.1211 115.627 85.5491 107.626 94.2524 106.374C95.7314 106.166 97.1725 106.147 98.5757 106.317C99.7513 106.45 100.263 104.838 99.2014 104.326C94.8213 102.146 89.6827 101.406 84.4114 102.62C74.5704 104.895 67.4598 113.902 67.5167 123.989C67.5925 137.3 79.1211 147.236 91.9771 145.757C96.3192 145.245 100.225 143.501 103.373 140.922C104.321 140.145 103.487 138.666 102.33 139.083C101.173 139.5 99.903 139.803 98.5946 139.955L98.6136 139.936Z" fill="white"/>
  <path d="M217.54 57.0552L214.62 0L179.636 38.5867C179.636 38.5867 165.207 34.1497 152.294 36.5009C148.634 20.6681 144.52 1.64965 144.52 1.64965L100.794 60.7906H136.727C142.642 60.7906 147.933 64.5071 149.924 70.0818L167.16 118.263C167.16 118.263 205.822 126.966 219.133 91.2997C223.646 80.2831 217.54 57.0552 217.54 57.0552ZM185.306 99.4721C178.594 101.027 171.786 96.3055 170.099 88.9485L194.37 83.3548C196.076 90.7119 191.999 97.9362 185.306 99.4911V99.4721Z" fill="white"/>
</svg>
